<svg xmlns="http://www.w3.org/2000/svg" viewBox="0 0 894.65 1239.44">
    <path
        d="M452.07,12.27c.4,34.14-5.85,67.61-17.94,96.15-13,30.9-29,54.59-66.33,98-115.38,134.41-185.26,258-195.26,345.19-3.94,33.73,1.34,84.49,13.23,127.42,24.7,89.19,79.91,160.48,170.74,220.15,16.32,10.67,47,28.94,48.46,28.84.5,0,2.1-4.74,3.63-10.55,3.22-12.14,13.78-38,21.18-52.18,25-47.71,53.51-85.32,110.37-145.21,55.27-58.18,67.3-72.08,84.21-97.33,31.72-47.24,43.18-82.45,46.12-140.86,3.2-62.24-5.94-116.86-30.88-185-35-95.45-100.27-205.77-160.73-271.51C470.25,16,453.68-.06,452.68,0,452.28,0,451.94,5.56,452.07,12.27Z" />
    <path
        d="M761.22,320.9c.84,3.31,4.92,30.7,6.64,45.43,3.53,30,4.55,50.3,3.89,85.09-1.19,68-7.08,94.08-29.91,132.06C711.28,634.31,650.68,702.37,590,754.23c-31.92,27.3-64.46,66.29-78.39,94-4.47,8.81-5.22,11.4-6.71,21.37-.92,6.19-2.16,13.66-2.81,16.65-2.32,11.16-1.32,27.08,1.88,27.14a72.66,72.66,0,0,0,9.16-2.92c23.87-8.65,55.3-15.26,115-24.23,59-8.89,77.25-12.54,98.89-19.63,51.93-17.22,113.13-64.17,137.93-105.91,5.16-8.5,14.76-34.83,19.61-53.14,11.86-45.18,13.35-97.56,4.26-150.94C875,475,837.14,394.45,788.4,343.62c-9.62-10.09-25.55-24.39-27.15-24.42C761,319.19,760.94,320,761.22,320.9Z" />
    <path
        d="M126.86,484.91a358.45,358.45,0,0,0-52.52,46.65c-25.18,27-40.7,49.84-54.16,80-28,62.41-26.9,116.1,3.39,173,27.82,52.07,75.24,92.35,136.9,116.23,43.31,16.81,89.82,25.11,149.72,26.84,9.52.27,9.62.36-7.22-9.16C210.09,865.86,158,813.23,136.34,750.15c-3.44-9.89-10.1-46.08-13.91-75.27-7.48-57.07-.05-143,16.76-192.29,1.45-4.26,2.33-7.79,1.93-7.77S134.38,479.45,126.86,484.91Z" />
    <path
        d="M387.74,984.73c1.17.91,31.08,7.34,54,11.63,51.62,9.51,131.44,19.06,165.52,19.95l10.55.25,167.91-51.67c2.1-1.37,4.9-12.73,5-20.36.17-7.94-2.54-16.65-7.34-24.09-4.37-6.87-16.81-16.91-26.73-21.74-7.72-3.79-27.84-10.71-29.82-10.35" />
    <path
        d="M59.16,937.29c-10.1-1.8-10.9-1.6-19.7,5.9-25.3,21.5-35.6,42.6-34,69.1.8,12.3,3.6,26.1,5.6,27.1.8.4,14.3,1.9,29.9,3.4l718.3,148.1c6.1.7,6.1.7,5.4-1.7-9.9-35.2-9.9-52.5.1-72.9,2.7-5.6,5.7-9.5,11.7-15.5,8.7-8.6,16.5-13.7,29-18.8,5.7-2.3,8.1-3.8,8.8-5.6.5-1.3.5-2.7.1-3.1" />
    <path
        d="M156.33,1079.3c-21,6.48-55.38,22.48-55.37,22.78s4.35,2.82,9.5,5.73c23.74,13.07,39.48,31.59,44.16,52.31,3.36,14.44,1.7,38.67-4,58.58-.75,2.71-1.2,5.12-1,5.32s51.13-20.93,113.17-47.06l112.76-47.54" />
    <path
        d="M842.78,1088.64c-23.9,4.6-45.2,23.2-53.1,46.4-2.7,8.1-3.6,22.9-1.9,32.7s6.6,19.7,12.4,25.1c9.1,8.4,20.5,11.7,36.6,10.9,22.7-1.1,42.9-13.7,52.5-32.9,4.6-9.3,5.9-16.2,5.2-28.8-1.3-23.9-11-42.6-26.2-50.1-5.3-2.6-7.8-3.2-14.7-3.4A86.14,86.14,0,0,0,842.78,1088.64Z" />
    <path
        d="M59.81,1121.92c-9,1-18.63,4.14-25.26,8.16-11.17,6.8-20.13,20.57-23,35.32-1.74,8.93-1.41,27,.63,35.2,3.77,14.53,13.49,26.56,26.4,32.52,9,4.24,16.7,5.8,29.81,6.27,33,1,53.29-12.47,60-39.79,2.13-8.94,1.83-31.14-.72-39.7-3.74-13.23-11.33-23.8-21.35-30-6.37-3.88-17.93-7.37-26.75-7.91-3.7-.24-7.91-.56-9.31-.74A99.71,99.71,0,0,0,59.81,1121.92Z" />
</svg>